<svg width="679" height="215" viewBox="0 0 679 215" fill="none" xmlns="http://www.w3.org/2000/svg">
<path d="M220.178 39.1553V155H199.193V39.1553H220.178ZM246.63 155H224.23L265.013 39.1553H290.92L331.76 155H309.36L278.419 62.9125H277.514L246.63 155ZM247.365 109.578H308.455V126.435H247.365V109.578ZM351.084 68.1165L367.374 105.166L395.996 68.1165H407.762L372.465 111.728L393.168 155H381.572L365.168 119.194L336.83 155H324.951L359.908 111.502L339.545 68.1165H351.084ZM397.757 187.581L417.781 68.1165H427.567L424.852 84.69H426.04C427.623 82.088 429.679 79.4106 432.205 76.6578C434.769 73.905 437.956 71.6047 441.765 69.7569C445.611 67.8714 450.212 66.9286 455.566 66.9286C462.731 66.9286 468.671 68.7953 473.384 72.5285C478.136 76.2618 481.454 81.5035 483.34 88.2536C485.263 95.0036 485.47 102.847 483.962 111.785C482.491 120.759 479.682 128.622 475.534 135.372C471.386 142.122 466.314 147.383 460.318 151.154C454.36 154.925 447.836 156.81 440.746 156.81C435.505 156.81 431.262 155.867 428.019 153.982C424.814 152.096 422.363 149.777 420.666 147.024C418.969 144.234 417.743 141.519 416.989 138.879H416.084L407.939 187.581H397.757ZM420.496 111.615C419.365 118.629 419.365 124.851 420.496 130.281C421.627 135.674 423.909 139.916 427.341 143.008C430.772 146.063 435.297 147.59 440.916 147.59C446.686 147.59 451.833 146.006 456.358 142.839C460.883 139.633 464.654 135.315 467.671 129.885C470.688 124.455 472.762 118.365 473.893 111.615C474.949 104.94 474.911 98.9254 473.78 93.5706C472.649 88.2158 470.386 83.9735 466.992 80.8436C463.599 77.6759 458.979 76.0921 453.134 76.0921C447.478 76.0921 442.387 77.6194 437.862 80.6739C433.374 83.6907 429.641 87.8765 426.662 93.2313C423.683 98.5483 421.627 104.676 420.496 111.615ZM517.003 39.1553L497.771 155H487.702L506.935 39.1553H517.003ZM547.428 156.81C539.811 156.81 533.4 154.887 528.196 151.04C522.992 147.156 519.315 141.783 517.166 134.92C515.016 128.056 514.658 120.137 516.091 111.162C517.524 102.414 520.371 94.7208 524.632 88.0839C528.931 81.4092 534.211 76.2241 540.471 72.5285C546.73 68.7953 553.537 66.9286 560.891 66.9286C568.546 66.9286 574.956 68.8707 580.123 72.7548C585.327 76.6389 589.003 82.0126 591.153 88.8758C593.34 95.739 593.717 103.677 592.284 112.69C590.851 121.401 587.985 129.074 583.686 135.711C579.387 142.311 574.108 147.477 567.848 151.21C561.626 154.943 554.819 156.81 547.428 156.81ZM547.541 147.59C553.726 147.59 559.231 145.95 564.058 142.669C568.923 139.35 572.939 134.938 576.106 129.433C579.274 123.889 581.405 117.799 582.498 111.162C583.516 104.827 583.403 99.0009 582.159 93.6838C580.914 88.3667 578.52 84.1055 574.975 80.9001C571.43 77.6948 566.717 76.0921 560.834 76.0921C554.687 76.0921 549.182 77.7702 544.317 81.1264C539.452 84.4449 535.436 88.8946 532.269 94.4757C529.101 100.019 526.989 106.09 525.933 112.69C524.878 119.063 524.953 124.889 526.16 130.168C527.404 135.447 529.799 139.671 533.343 142.839C536.926 146.006 541.658 147.59 547.541 147.59ZM596.223 155L610.703 68.1165H620.489L618.226 81.4658H618.962C621.375 77.0914 624.976 73.5656 629.766 70.8882C634.592 68.1731 639.74 66.8155 645.208 66.8155C646.037 66.8155 646.961 66.8344 647.979 66.8721C648.998 66.8721 649.846 66.9098 650.525 66.9852L648.771 77.2234C648.319 77.148 647.527 77.0349 646.396 76.884C645.302 76.7332 644.076 76.6578 642.719 76.6578C638.194 76.6578 634.008 77.6194 630.161 79.5426C626.353 81.4281 623.147 84.0489 620.545 87.4051C617.981 90.7613 616.322 94.5888 615.568 98.8877L606.291 155H596.223Z" fill="url(#paint0_linear_282_9)"/>
<path d="M176.604 0.90625L111.747 83.4428L104.369 74.0146L161.822 0.90625H176.604Z" fill="url(#paint1_linear_282_9)"/>
<path d="M111.764 98.7089L104.282 108.232L132.172 143.818H147.144L111.764 98.7089Z" fill="url(#paint2_linear_282_9)"/>
<path d="M105.467 91.0717L25.7411 192.539H0L79.6308 91.1881L38.2708 38.4388H64.1931L105.467 91.0717Z" fill="url(#paint3_linear_282_9)"/>
<defs>
<linearGradient id="paint0_linear_282_9" x1="377.5" y1="59.5" x2="375.014" y2="601.989" gradientUnits="userSpaceOnUse">
<stop stop-color="white"/>
<stop offset="1" stop-color="#1E1E1E" stop-opacity="0"/>
</linearGradient>
<linearGradient id="paint1_linear_282_9" x1="42" y1="20.5" x2="30.2686" y2="653.616" gradientUnits="userSpaceOnUse">
<stop offset="0.0192308" stop-color="white"/>
<stop offset="1" stop-color="#1E1E1E" stop-opacity="0"/>
</linearGradient>
<linearGradient id="paint2_linear_282_9" x1="42" y1="20.5" x2="30.2686" y2="653.616" gradientUnits="userSpaceOnUse">
<stop offset="0.0192308" stop-color="white"/>
<stop offset="1" stop-color="#1E1E1E" stop-opacity="0"/>
</linearGradient>
<linearGradient id="paint3_linear_282_9" x1="42" y1="20.5" x2="30.2686" y2="653.616" gradientUnits="userSpaceOnUse">
<stop offset="0.0192308" stop-color="white"/>
<stop offset="1" stop-color="#1E1E1E" stop-opacity="0"/>
</linearGradient>
</defs>
</svg>
